{
  "accessors": [
    {
      "bufferView": 2,
      "componentType": 5126,
      "count": 2173,
      "max": [
        1.0187369585037231,
        0.6497740149497986,
        2.6806070804595947
      ],
      "min": [
        -0.9266420006752014,
        -0.6497740149497986,
        -0.00685400003567338
      ],
      "type": "VEC3"
    },
    {
      "bufferView": 2,
      "byteOffset": 26076,
      "componentType": 5126,
      "count": 2173,
      "max": [
        0.9999998807907104,
        1.0,
        0.999823272228241
      ],
      "min": [
        -0.9999998807907104,
        -1.0,
        -0.9999960660934448
      ],
      "type": "VEC3"
    },
    {
      "bufferView": 3,
      "componentType": 5126,
      "count": 2173,
      "max": [
        0.9998655319213867,
        1.0,
        0.9999958276748657,
        1.0
      ],
      "min": [
        -1.0,
        -1.0,
        -0.9982501864433289,
        -1.0
      ],
      "type": "VEC4"
    },
    {
      "bufferView": 1,
      "componentType": 5126,
      "count": 2173,
      "max": [
        0.9956049919128418,
        0.9858090281486511
      ],
      "min": [
        0.007156000006943941,
        0.006835999898612499
      ],
      "type": "VEC2"
    },
    {
      "bufferView": 0,
      "componentType": 5125,
      "count": 10524,
      "type": "SCALAR"
    },
    {
      "bufferView": 2,
      "byteOffset": 52152,
      "componentType": 5126,
      "count": 106,
      "max": [
        0.514847993850708,
        0.0756630003452301,
        2.3491969108581543
      ],
      "min": [
        -0.18778899312019348,
        -0.05940600112080574,
        2.12064790725708
      ],
      "type": "VEC3"
    },
    {
      "bufferView": 2,
      "byteOffset": 53424,
      "componentType": 5126,
      "count": 106,
      "max": [
        0.9934229254722595,
        0.999866783618927,
        0.9714739322662354
      ],
      "min": [
        -0.4579187035560608,
        -0.999866783618927,
        -0.9725672602653503
      ],
      "type": "VEC3"
    },
    {
      "bufferView": 1,
      "byteOffset": 17384,
      "componentType": 5126,
      "count": 106,
      "max": [
        0.7758790254592896,
        0.9829859733581543
      ],
      "min": [
        0.5219730138778687,
        0.7990720272064209
      ],
      "type": "VEC2"
    },
    {
      "bufferView": 0,
      "byteOffset": 42096,
      "componentType": 5125,
      "count": 546,
      "type": "SCALAR"
    }
  ],
  "asset": {
    "extras": {
      "author": "romyblox (https://sketchfab.com/romyblox)",
      "license": "CC-BY-4.0 (http://creativecommons.org/licenses/by/4.0/)",
      "source": "https://sketchfab.com/3d-models/bus-stop-spongebob-battle-for-bkinibottom-6bec019924174b6691ea0e09b09ddee9",
      "title": "Bus Stop-spongebob battle for bkinibottom"
    },
    "generator": "Sketchfab-15.24.0",
    "version": "2.0"
  },
  "bufferViews": [
    {
      "buffer": 0,
      "byteLength": 44280,
      "name": "floatBufferViews",
      "target": 34963
    },
    {
      "buffer": 0,
      "byteLength": 18232,
      "byteOffset": 44280,
      "byteStride": 8,
      "name": "floatBufferViews",
      "target": 34962
    },
    {
      "buffer": 0,
      "byteLength": 54696,
      "byteOffset": 62512,
      "byteStride": 12,
      "name": "floatBufferViews",
      "target": 34962
    },
    {
      "buffer": 0,
      "byteLength": 34768,
      "byteOffset": 117208,
      "byteStride": 16,
      "name": "floatBufferViews",
      "target": 34962
    }
  ],
  "buffers": [
    {
      "byteLength": 151976,
      "uri": "scene.bin"
    }
  ],
  "images": [
    {
      "uri": "textures/MI_BusStop_01_Unlit1_baseColor.png"
    },
    {
      "uri": "textures/MI_BusStop_01_Unlit1_normal.png"
    }
  ],
  "materials": [
    {
      "doubleSided": true,
      "name": "MI_BusStop_01_Unlit1",
      "normalTexture": {
        "index": 1
      },
      "pbrMetallicRoughness": {
        "baseColorTexture": {
          "index": 0
        },
        "metallicFactor": 0.0,
        "roughnessFactor": 0.8063508326896291
      }
    },
    {
      "doubleSided": true,
      "name": "MI_Glass",
      "pbrMetallicRoughness": {
        "baseColorTexture": {
          "index": 0
        },
        "metallicFactor": 0.0,
        "roughnessFactor": 0.8063508326896291
      }
    }
  ],
  "meshes": [
    {
      "name": "Object_0",
      "primitives": [
        {
          "attributes": {
            "NORMAL": 1,
            "POSITION": 0,
            "TANGENT": 2,
            "TEXCOORD_0": 3
          },
          "indices": 4,
          "material": 0,
          "mode": 4
        }
      ]
    },
    {
      "name": "Object_1",
      "primitives": [
        {
          "attributes": {
            "NORMAL": 6,
            "POSITION": 5,
            "TEXCOORD_0": 7
          },
          "indices": 8,
          "material": 1,
          "mode": 4
        }
      ]
    }
  ],
  "nodes": [
    {
      "children": [
        1
      ],
      "matrix": [
        1.0,
        0.0,
        0.0,
        0.0,
        0.0,
        2.220446049250313e-16,
        -1.0,
        0.0,
        0.0,
        1.0,
        2.220446049250313e-16,
        0.0,
        0.0,
        0.0,
        0.0,
        1.0
      ],
      "name": "Sketchfab_model"
    },
    {
      "children": [
        2,
        3
      ],
      "name": "bus stop.obj.cleaner.materialmerger.gles"
    },
    {
      "mesh": 0,
      "name": "Object_2"
    },
    {
      "mesh": 1,
      "name": "Object_3"
    }
  ],
  "samplers": [
    {
      "magFilter": 9729,
      "minFilter": 9987,
      "wrapS": 10497,
      "wrapT": 10497
    }
  ],
  "scene": 0,
  "scenes": [
    {
      "name": "Sketchfab_Scene",
      "nodes": [
        0
      ]
    }
  ],
  "textures": [
    {
      "sampler": 0,
      "source": 0
    },
    {
      "sampler": 0,
      "source": 1
    }
  ]
}
