{
  "accessors": [
    {
      "bufferView": 2,
      "componentType": 5126,
      "count": 407,
      "max": [
        2.039405107498169,
        2.369468927383423,
        7.011019229888916
      ],
      "min": [
        -2.1324410438537598,
        -2.423583984375,
        -0.021270999684929848
      ],
      "type": "VEC3"
    },
    {
      "bufferView": 2,
      "byteOffset": 4884,
      "componentType": 5126,
      "count": 407,
      "max": [
        1.0,
        1.0,
        1.0
      ],
      "min": [
        -1.0,
        -1.0,
        -1.0
      ],
      "type": "VEC3"
    },
    {
      "bufferView": 3,
      "componentType": 5126,
      "count": 407,
      "max": [
        1.0,
        1.0,
        0.9992548823356628,
        1.0
      ],
      "min": [
        -1.0,
        -1.0,
        -1.0,
        -1.0
      ],
      "type": "VEC4"
    },
    {
      "bufferView": 1,
      "componentType": 5126,
      "count": 407,
      "max": [
        0.9984570145606995,
        0.999517023563385
      ],
      "min": [
        0.0004830000107176602,
        0.0004830000107176602
      ],
      "type": "VEC2"
    },
    {
      "bufferView": 0,
      "componentType": 5125,
      "count": 1329,
      "type": "SCALAR"
    },
    {
      "bufferView": 2,
      "byteOffset": 9768,
      "componentType": 5126,
      "count": 17,
      "max": [
        -1.6224360466003418,
        0.6815019845962524,
        1.8336180448532104
      ],
      "min": [
        -1.6224360466003418,
        -0.6815019845962524,
        -0.021270999684929848
      ],
      "type": "VEC3"
    },
    {
      "bufferView": 2,
      "byteOffset": 9972,
      "componentType": 5126,
      "count": 17,
      "max": [
        -1.0,
        -0.0,
        0.0
      ],
      "min": [
        -1.0,
        -0.0,
        0.0
      ],
      "type": "VEC3"
    },
    {
      "bufferView": 3,
      "byteOffset": 6512,
      "componentType": 5126,
      "count": 17,
      "max": [
        0.0,
        0.0,
        -1.0,
        1.0
      ],
      "min": [
        0.0,
        -2.073141018854585e-07,
        -1.0,
        1.0
      ],
      "type": "VEC4"
    },
    {
      "bufferView": 1,
      "byteOffset": 3256,
      "componentType": 5126,
      "count": 17,
      "max": [
        0.5328559875488281,
        0.9383299946784973
      ],
      "min": [
        0.3879089951515198,
        0.8342620134353638
      ],
      "type": "VEC2"
    },
    {
      "bufferView": 0,
      "byteOffset": 5316,
      "componentType": 5125,
      "count": 45,
      "type": "SCALAR"
    },
    {
      "bufferView": 2,
      "byteOffset": 10176,
      "componentType": 5126,
      "count": 1012,
      "max": [
        -0.8619160056114197,
        1.4294769763946533,
        4.825492858886719
      ],
      "min": [
        -1.7790509462356567,
        -1.4182519912719727,
        3.878248929977417
      ],
      "type": "VEC3"
    },
    {
      "bufferView": 2,
      "byteOffset": 22320,
      "componentType": 5126,
      "count": 1012,
      "max": [
        0.958732545375824,
        0.9587052464485168,
        1.0
      ],
      "min": [
        -0.9762933850288391,
        -0.9587052464485168,
        -1.0
      ],
      "type": "VEC3"
    },
    {
      "bufferView": 3,
      "byteOffset": 6784,
      "componentType": 5126,
      "count": 1012,
      "max": [
        0.9725462794303894,
        0.9886473417282104,
        0.9600971341133118,
        -1.0
      ],
      "min": [
        -0.9768610000610352,
        -0.9905737042427063,
        -0.9635568857192993,
        -1.0
      ],
      "type": "VEC4"
    },
    {
      "bufferView": 1,
      "byteOffset": 3392,
      "componentType": 5126,
      "count": 1012,
      "max": [
        0.9160379767417908,
        0.957518994808197
      ],
      "min": [
        0.2177630066871643,
        0.3667609989643097
      ],
      "type": "VEC2"
    },
    {
      "bufferView": 0,
      "byteOffset": 5496,
      "componentType": 5125,
      "count": 2208,
      "type": "SCALAR"
    },
    {
      "bufferView": 2,
      "byteOffset": 34464,
      "componentType": 5126,
      "count": 50,
      "max": [
        -1.3112709522247314,
        1.2148200273513794,
        4.662707805633545
      ],
      "min": [
        -1.5021389722824097,
        -1.206853985786438,
        4.041032791137695
      ],
      "type": "VEC3"
    },
    {
      "bufferView": 2,
      "byteOffset": 35064,
      "componentType": 5126,
      "count": 50,
      "max": [
        -0.9517087340354919,
        0.30700284242630005,
        0.0
      ],
      "min": [
        -0.9587052464485168,
        -0.284401535987854,
        0.0
      ],
      "type": "VEC3"
    },
    {
      "bufferView": 1,
      "byteOffset": 11488,
      "componentType": 5126,
      "count": 50,
      "max": [
        0.48778098821640015,
        0.9866330027580261
      ],
      "min": [
        0.4415290057659149,
        0.9392960071563721
      ],
      "type": "VEC2"
    },
    {
      "bufferView": 0,
      "byteOffset": 14328,
      "componentType": 5125,
      "count": 192,
      "type": "SCALAR"
    }
  ],
  "asset": {
    "extras": {
      "author": "Cave (https://sketchfab.com/cave)",
      "license": "CC-BY-4.0 (http://creativecommons.org/licenses/by/4.0/)",
      "source": "https://sketchfab.com/3d-models/spongebob-squidwards-house-a2bd87c3f39d460ebeba9a5eb1ce60da",
      "title": "Spongebob,  Squidwards house"
    },
    "generator": "Sketchfab-12.67.0",
    "version": "2.0"
  },
  "bufferViews": [
    {
      "buffer": 0,
      "byteLength": 15096,
      "name": "floatBufferViews",
      "target": 34963
    },
    {
      "buffer": 0,
      "byteLength": 11888,
      "byteOffset": 15096,
      "byteStride": 8,
      "name": "floatBufferViews",
      "target": 34962
    },
    {
      "buffer": 0,
      "byteLength": 35664,
      "byteOffset": 26984,
      "byteStride": 12,
      "name": "floatBufferViews",
      "target": 34962
    },
    {
      "buffer": 0,
      "byteLength": 22976,
      "byteOffset": 62648,
      "byteStride": 16,
      "name": "floatBufferViews",
      "target": 34962
    }
  ],
  "buffers": [
    {
      "byteLength": 85624,
      "uri": "scene.bin"
    }
  ],
  "extensionsRequired": [
    "KHR_materials_pbrSpecularGlossiness"
  ],
  "extensionsUsed": [
    "KHR_materials_pbrSpecularGlossiness"
  ],
  "images": [
    {
      "uri": "textures/SquidBeton_diffuse.png"
    },
    {
      "uri": "textures/SquidBeton_specularGlossiness.png"
    },
    {
      "uri": "textures/SquidBeton_normal.png"
    },
    {
      "uri": "textures/SquidBeton_occlusion.png"
    },
    {
      "uri": "textures/SquidDoor_diffuse.png"
    },
    {
      "uri": "textures/SquidDoor_specularGlossiness.png"
    },
    {
      "uri": "textures/SquidDoor_normal.png"
    },
    {
      "uri": "textures/SquidDoor_occlusion.png"
    },
    {
      "uri": "textures/SquidMetal_diffuse.png"
    },
    {
      "uri": "textures/SquidMetal_specularGlossiness.png"
    },
    {
      "uri": "textures/SquidMetal_normal.png"
    }
  ],
  "materials": [
    {
      "doubleSided": true,
      "extensions": {
        "KHR_materials_pbrSpecularGlossiness": {
          "diffuseFactor": [
            1.0,
            1.0,
            1.0,
            1.0
          ],
          "diffuseTexture": {
            "index": 0
          },
          "glossinessFactor": 0.4,
          "specularFactor": [
            1.0,
            1.0,
            1.0
          ],
          "specularGlossinessTexture": {
            "index": 1
          }
        }
      },
      "name": "SquidBeton",
      "normalTexture": {
        "index": 2
      },
      "occlusionTexture": {
        "index": 3
      }
    },
    {
      "doubleSided": true,
      "extensions": {
        "KHR_materials_pbrSpecularGlossiness": {
          "diffuseFactor": [
            1.0,
            1.0,
            1.0,
            1.0
          ],
          "diffuseTexture": {
            "index": 4
          },
          "glossinessFactor": 0.4,
          "specularFactor": [
            1.0,
            1.0,
            1.0
          ],
          "specularGlossinessTexture": {
            "index": 5
          }
        }
      },
      "name": "SquidDoor",
      "normalTexture": {
        "index": 6
      },
      "occlusionTexture": {
        "index": 7
      }
    },
    {
      "doubleSided": true,
      "extensions": {
        "KHR_materials_pbrSpecularGlossiness": {
          "diffuseFactor": [
            1.0,
            1.0,
            1.0,
            1.0
          ],
          "diffuseTexture": {
            "index": 8
          },
          "glossinessFactor": 0.5179562713946093,
          "specularFactor": [
            1.0,
            1.0,
            1.0
          ],
          "specularGlossinessTexture": {
            "index": 9
          }
        }
      },
      "name": "SquidMetal",
      "normalTexture": {
        "index": 10
      }
    },
    {
      "doubleSided": true,
      "extensions": {
        "KHR_materials_pbrSpecularGlossiness": {
          "diffuseFactor": [
            1.0,
            1.0,
            1.0,
            1.0
          ],
          "glossinessFactor": 0.4,
          "specularFactor": [
            0.0,
            0.0,
            0.0
          ]
        }
      },
      "name": "glass"
    }
  ],
  "meshes": [
    {
      "name": "Object_0",
      "primitives": [
        {
          "attributes": {
            "NORMAL": 1,
            "POSITION": 0,
            "TANGENT": 2,
            "TEXCOORD_0": 3
          },
          "indices": 4,
          "material": 0,
          "mode": 4
        }
      ]
    },
    {
      "name": "Object_1",
      "primitives": [
        {
          "attributes": {
            "NORMAL": 6,
            "POSITION": 5,
            "TANGENT": 7,
            "TEXCOORD_0": 8
          },
          "indices": 9,
          "material": 1,
          "mode": 4
        }
      ]
    },
    {
      "name": "Object_2",
      "primitives": [
        {
          "attributes": {
            "NORMAL": 11,
            "POSITION": 10,
            "TANGENT": 12,
            "TEXCOORD_0": 13
          },
          "indices": 14,
          "material": 2,
          "mode": 4
        }
      ]
    },
    {
      "name": "Object_3",
      "primitives": [
        {
          "attributes": {
            "NORMAL": 16,
            "POSITION": 15,
            "TEXCOORD_0": 17
          },
          "indices": 18,
          "material": 3,
          "mode": 4
        }
      ]
    }
  ],
  "nodes": [
    {
      "children": [
        1
      ],
      "matrix": [
        0.4960155189037323,
        0.0,
        0.0,
        0.0,
        0.0,
        1.1013756993166364e-16,
        -0.4960155189037323,
        0.0,
        0.0,
        0.4960155189037323,
        1.1013756993166364e-16,
        0.0,
        0.0,
        0.0,
        0.0,
        1.0
      ],
      "name": "Sketchfab_model"
    },
    {
      "children": [
        2,
        3,
        4,
        5
      ],
      "name": "9ff8b7fb3a864eca922b72a86f6fe43e.obj.cleaner.materialmerger.gles"
    },
    {
      "mesh": 0,
      "name": "Object_2"
    },
    {
      "mesh": 1,
      "name": "Object_3"
    },
    {
      "mesh": 2,
      "name": "Object_4"
    },
    {
      "mesh": 3,
      "name": "Object_5"
    }
  ],
  "samplers": [
    {
      "magFilter": 9729,
      "minFilter": 9987,
      "wrapS": 10497,
      "wrapT": 10497
    }
  ],
  "scene": 0,
  "scenes": [
    {
      "name": "Sketchfab_Scene",
      "nodes": [
        0
      ]
    }
  ],
  "textures": [
    {
      "sampler": 0,
      "source": 0
    },
    {
      "sampler": 0,
      "source": 1
    },
    {
      "sampler": 0,
      "source": 2
    },
    {
      "sampler": 0,
      "source": 3
    },
    {
      "sampler": 0,
      "source": 4
    },
    {
      "sampler": 0,
      "source": 5
    },
    {
      "sampler": 0,
      "source": 6
    },
    {
      "sampler": 0,
      "source": 7
    },
    {
      "sampler": 0,
      "source": 8
    },
    {
      "sampler": 0,
      "source": 9
    },
    {
      "sampler": 0,
      "source": 10
    }
  ]
}
