{
  "accessors": [
    {
      "bufferView": 2,
      "componentType": 5126,
      "count": 65534,
      "max": [
        22.015972137451172,
        14.58722972869873,
        1.8094090223312378
      ],
      "min": [
        -25.401840209960938,
        -11.63910961151123,
        -5.359021186828613
      ],
      "type": "VEC3"
    },
    {
      "bufferView": 2,
      "byteOffset": 786408,
      "componentType": 5126,
      "count": 65534,
      "max": [
        0.9997264742851257,
        0.9999997615814209,
        0.9994062185287476
      ],
      "min": [
        -0.9987215995788574,
        -0.9999960660934448,
        -0.8920239210128784
      ],
      "type": "VEC3"
    },
    {
      "bufferView": 1,
      "componentType": 5126,
      "count": 65534,
      "max": [
        0.973471999168396,
        0.9998679757118225
      ],
      "min": [
        0.005311000160872936,
        0.0053530000150203705
      ],
      "type": "VEC2"
    },
    {
      "bufferView": 0,
      "componentType": 5125,
      "count": 67572,
      "type": "SCALAR"
    },
    {
      "bufferView": 2,
      "byteOffset": 1572816,
      "componentType": 5126,
      "count": 65532,
      "max": [
        15.305628776550293,
        13.867169380187988,
        10.179167747497559
      ],
      "min": [
        -7.5622968673706055,
        -10.842392921447754,
        -5.359020233154297
      ],
      "type": "VEC3"
    },
    {
      "bufferView": 2,
      "byteOffset": 2359200,
      "componentType": 5126,
      "count": 65532,
      "max": [
        0.9965357780456543,
        0.9999432563781738,
        0.9999370574951172
      ],
      "min": [
        -0.945894718170166,
        -0.999914288520813,
        -0.9960421323776245
      ],
      "type": "VEC3"
    },
    {
      "bufferView": 1,
      "byteOffset": 524272,
      "componentType": 5126,
      "count": 65532,
      "max": [
        0.9843019843101501,
        0.9140689969062805
      ],
      "min": [
        0.027264000847935677,
        0.0
      ],
      "type": "VEC2"
    },
    {
      "bufferView": 0,
      "byteOffset": 270288,
      "componentType": 5125,
      "count": 65556,
      "type": "SCALAR"
    },
    {
      "bufferView": 2,
      "byteOffset": 3145584,
      "componentType": 5126,
      "count": 65534,
      "max": [
        -6.500435829162598,
        10.570775032043457,
        10.008294105529785
      ],
      "min": [
        -17.83125877380371,
        -10.482309341430664,
        -5.359020233154297
      ],
      "type": "VEC3"
    },
    {
      "bufferView": 2,
      "byteOffset": 3931992,
      "componentType": 5126,
      "count": 65534,
      "max": [
        0.7181707620620728,
        0.9996529221534729,
        0.9999737739562988
      ],
      "min": [
        -0.9984111785888672,
        -0.9999774694442749,
        -0.7000139355659485
      ],
      "type": "VEC3"
    },
    {
      "bufferView": 1,
      "byteOffset": 1048528,
      "componentType": 5126,
      "count": 65534,
      "max": [
        0.9448490142822266,
        0.8896809816360474
      ],
      "min": [
        0.05344400182366371,
        0.01592100039124489
      ],
      "type": "VEC2"
    },
    {
      "bufferView": 0,
      "byteOffset": 532512,
      "componentType": 5125,
      "count": 65544,
      "type": "SCALAR"
    },
    {
      "bufferView": 2,
      "byteOffset": 4718400,
      "componentType": 5126,
      "count": 65534,
      "max": [
        -13.34483814239502,
        3.9125258922576904,
        6.387678146362305
      ],
      "min": [
        -25.39625358581543,
        -10.271180152893066,
        -5.359021186828613
      ],
      "type": "VEC3"
    },
    {
      "bufferView": 2,
      "byteOffset": 5504808,
      "componentType": 5126,
      "count": 65534,
      "max": [
        0.903516411781311,
        0.9998763799667358,
        0.9993689060211182
      ],
      "min": [
        -0.9972634315490723,
        -0.9999786615371704,
        -0.6066054105758667
      ],
      "type": "VEC3"
    },
    {
      "bufferView": 1,
      "byteOffset": 1572800,
      "componentType": 5126,
      "count": 65534,
      "max": [
        0.9749659895896912,
        0.928928017616272
      ],
      "min": [
        0.12134599685668945,
        0.00930699985474348
      ],
      "type": "VEC2"
    },
    {
      "bufferView": 0,
      "byteOffset": 794688,
      "componentType": 5125,
      "count": 65544,
      "type": "SCALAR"
    },
    {
      "bufferView": 2,
      "byteOffset": 6291216,
      "componentType": 5126,
      "count": 65533,
      "max": [
        0.0571260005235672,
        13.441983222961426,
        10.037629127502441
      ],
      "min": [
        -14.15636920928955,
        -11.124685287475586,
        -5.359020233154297
      ],
      "type": "VEC3"
    },
    {
      "bufferView": 2,
      "byteOffset": 7077612,
      "componentType": 5126,
      "count": 65533,
      "max": [
        0.9516093134880066,
        0.9999544620513916,
        0.9999170303344727
      ],
      "min": [
        -0.9832592010498047,
        -0.9999898672103882,
        -0.7529196739196777
      ],
      "type": "VEC3"
    },
    {
      "bufferView": 1,
      "byteOffset": 2097072,
      "componentType": 5126,
      "count": 65533,
      "max": [
        0.8935679793357849,
        0.918923020362854
      ],
      "min": [
        0.0,
        0.0037930000107735395
      ],
      "type": "VEC2"
    },
    {
      "bufferView": 0,
      "byteOffset": 1056864,
      "componentType": 5125,
      "count": 65547,
      "type": "SCALAR"
    },
    {
      "bufferView": 2,
      "byteOffset": 7864008,
      "componentType": 5126,
      "count": 65534,
      "max": [
        5.656830787658691,
        14.379101753234863,
        9.153870582580566
      ],
      "min": [
        -0.9218199849128723,
        -11.410625457763672,
        -5.359020233154297
      ],
      "type": "VEC3"
    },
    {
      "bufferView": 2,
      "byteOffset": 8650416,
      "componentType": 5126,
      "count": 65534,
      "max": [
        0.9979360699653625,
        0.9999860525131226,
        0.9997134804725647
      ],
      "min": [
        -0.8586155772209167,
        -0.9999743700027466,
        -0.9147158861160278
      ],
      "type": "VEC3"
    },
    {
      "bufferView": 1,
      "byteOffset": 2621336,
      "componentType": 5126,
      "count": 65534,
      "max": [
        0.7558659911155701,
        0.7988200187683105
      ],
      "min": [
        0.000371000001905486,
        0.004625000059604645
      ],
      "type": "VEC2"
    },
    {
      "bufferView": 0,
      "byteOffset": 1319052,
      "componentType": 5125,
      "count": 65550,
      "type": "SCALAR"
    },
    {
      "bufferView": 2,
      "byteOffset": 9436824,
      "componentType": 5126,
      "count": 65534,
      "max": [
        11.37065601348877,
        14.56823444366455,
        6.04148006439209
      ],
      "min": [
        4.722255229949951,
        -11.393250465393066,
        -5.359020233154297
      ],
      "type": "VEC3"
    },
    {
      "bufferView": 2,
      "byteOffset": 10223232,
      "componentType": 5126,
      "count": 65534,
      "max": [
        0.9832507371902466,
        0.9999948740005493,
        0.9999904632568359
      ],
      "min": [
        -0.7524993419647217,
        -0.9999817609786987,
        -0.9335752129554749
      ],
      "type": "VEC3"
    },
    {
      "bufferView": 1,
      "byteOffset": 3145608,
      "componentType": 5126,
      "count": 65534,
      "max": [
        0.7661920189857483,
        0.8922410011291504
      ],
      "min": [
        0.0027970001101493835,
        0.00010199999815085903
      ],
      "type": "VEC2"
    },
    {
      "bufferView": 0,
      "byteOffset": 1581252,
      "componentType": 5125,
      "count": 65556,
      "type": "SCALAR"
    },
    {
      "bufferView": 2,
      "byteOffset": 11009640,
      "componentType": 5126,
      "count": 15962,
      "max": [
        12.67950439453125,
        14.011764526367188,
        4.121377944946289
      ],
      "min": [
        10.581395149230957,
        -10.616497039794922,
        -5.359020233154297
      ],
      "type": "VEC3"
    },
    {
      "bufferView": 2,
      "byteOffset": 11201184,
      "componentType": 5126,
      "count": 15962,
      "max": [
        0.9540001153945923,
        0.9999186992645264,
        0.9999291896820068
      ],
      "min": [
        -0.5195039510726929,
        -0.9999620914459229,
        -0.9687861204147339
      ],
      "type": "VEC3"
    },
    {
      "bufferView": 1,
      "byteOffset": 3669880,
      "componentType": 5126,
      "count": 15962,
      "max": [
        0.9829909801483154,
        0.9079170227050781
      ],
      "min": [
        0.10548800230026245,
        0.003823000006377697
      ],
      "type": "VEC2"
    },
    {
      "bufferView": 0,
      "byteOffset": 1843476,
      "componentType": 5125,
      "count": 15966,
      "type": "SCALAR"
    },
    {
      "bufferView": 2,
      "byteOffset": 11392728,
      "componentType": 5126,
      "count": 218,
      "max": [
        -14.935203552246094,
        3.21618390083313,
        -5.359018802642822
      ],
      "min": [
        -25.401840209960938,
        -4.627132892608643,
        -5.359021186828613
      ],
      "type": "VEC3"
    },
    {
      "bufferView": 2,
      "byteOffset": 11395344,
      "componentType": 5126,
      "count": 218,
      "max": [
        0.0006818873807787895,
        0.001747280010022223,
        -0.9999479651451111
      ],
      "min": [
        -0.0005003128317184746,
        -0.010197116993367672,
        -1.0
      ],
      "type": "VEC3"
    },
    {
      "bufferView": 1,
      "byteOffset": 3797576,
      "componentType": 5126,
      "count": 218,
      "max": [
        0.7607529759407043,
        0.31954699754714966
      ],
      "min": [
        0.0,
        0.0
      ],
      "type": "VEC2"
    },
    {
      "bufferView": 0,
      "byteOffset": 1907340,
      "componentType": 5125,
      "count": 642,
      "type": "SCALAR"
    }
  ],
  "asset": {
    "extras": {
      "author": "Ohio State University Art and Design (https://sketchfab.com/osuart)",
      "license": "CC-BY-4.0 (http://creativecommons.org/licenses/by/4.0/)",
      "source": "https://sketchfab.com/3d-models/coral-1-6c230ecff54a406fabebed1bfcce056f",
      "title": "Coral 1"
    },
    "generator": "Sketchfab-12.67.0",
    "version": "2.0"
  },
  "bufferViews": [
    {
      "buffer": 0,
      "byteLength": 1909908,
      "name": "floatBufferViews",
      "target": 34963
    },
    {
      "buffer": 0,
      "byteLength": 3799320,
      "byteOffset": 1909908,
      "byteStride": 8,
      "name": "floatBufferViews",
      "target": 34962
    },
    {
      "buffer": 0,
      "byteLength": 11397960,
      "byteOffset": 5709228,
      "byteStride": 12,
      "name": "floatBufferViews",
      "target": 34962
    }
  ],
  "buffers": [
    {
      "byteLength": 17107188,
      "uri": "scene.bin"
    }
  ],
  "images": [
    {
      "uri": "textures/RowanMcLachlan_Coral-1_baseColor.jpeg"
    }
  ],
  "materials": [
    {
      "doubleSided": true,
      "name": "RowanMcLachlan_Coral-1",
      "pbrMetallicRoughness": {
        "baseColorTexture": {
          "index": 0
        },
        "metallicFactor": 0.0
      }
    },
    {
      "doubleSided": true,
      "name": "RowanMcLachlan_Coral-1_NONE",
      "pbrMetallicRoughness": {
        "baseColorTexture": {
          "index": 0
        },
        "metallicFactor": 0.0
      }
    }
  ],
  "meshes": [
    {
      "name": "Object_0",
      "primitives": [
        {
          "attributes": {
            "NORMAL": 1,
            "POSITION": 0,
            "TEXCOORD_0": 2
          },
          "indices": 3,
          "material": 0,
          "mode": 4
        }
      ]
    },
    {
      "name": "Object_1",
      "primitives": [
        {
          "attributes": {
            "NORMAL": 5,
            "POSITION": 4,
            "TEXCOORD_0": 6
          },
          "indices": 7,
          "material": 0,
          "mode": 4
        }
      ]
    },
    {
      "name": "Object_2",
      "primitives": [
        {
          "attributes": {
            "NORMAL": 9,
            "POSITION": 8,
            "TEXCOORD_0": 10
          },
          "indices": 11,
          "material": 0,
          "mode": 4
        }
      ]
    },
    {
      "name": "Object_3",
      "primitives": [
        {
          "attributes": {
            "NORMAL": 13,
            "POSITION": 12,
            "TEXCOORD_0": 14
          },
          "indices": 15,
          "material": 0,
          "mode": 4
        }
      ]
    },
    {
      "name": "Object_4",
      "primitives": [
        {
          "attributes": {
            "NORMAL": 17,
            "POSITION": 16,
            "TEXCOORD_0": 18
          },
          "indices": 19,
          "material": 0,
          "mode": 4
        }
      ]
    },
    {
      "name": "Object_5",
      "primitives": [
        {
          "attributes": {
            "NORMAL": 21,
            "POSITION": 20,
            "TEXCOORD_0": 22
          },
          "indices": 23,
          "material": 0,
          "mode": 4
        }
      ]
    },
    {
      "name": "Object_6",
      "primitives": [
        {
          "attributes": {
            "NORMAL": 25,
            "POSITION": 24,
            "TEXCOORD_0": 26
          },
          "indices": 27,
          "material": 0,
          "mode": 4
        }
      ]
    },
    {
      "name": "Object_7",
      "primitives": [
        {
          "attributes": {
            "NORMAL": 29,
            "POSITION": 28,
            "TEXCOORD_0": 30
          },
          "indices": 31,
          "material": 0,
          "mode": 4
        }
      ]
    },
    {
      "name": "Object_8",
      "primitives": [
        {
          "attributes": {
            "NORMAL": 33,
            "POSITION": 32,
            "TEXCOORD_0": 34
          },
          "indices": 35,
          "material": 1,
          "mode": 4
        }
      ]
    }
  ],
  "nodes": [
    {
      "children": [
        1
      ],
      "matrix": [
        1.0,
        0.0,
        0.0,
        0.0,
        0.0,
        2.220446049250313e-16,
        -1.0,
        0.0,
        0.0,
        1.0,
        2.220446049250313e-16,
        0.0,
        0.0,
        0.0,
        0.0,
        1.0
      ],
      "name": "Sketchfab_model"
    },
    {
      "children": [
        2,
        3,
        4,
        5,
        6,
        7,
        8,
        9,
        10
      ],
      "name": "RowanMcLachlan_Coral-1_trimmed.obj.cleaner.materialmerger.gles"
    },
    {
      "mesh": 0,
      "name": "Object_2"
    },
    {
      "mesh": 1,
      "name": "Object_3"
    },
    {
      "mesh": 2,
      "name": "Object_4"
    },
    {
      "mesh": 3,
      "name": "Object_5"
    },
    {
      "mesh": 4,
      "name": "Object_6"
    },
    {
      "mesh": 5,
      "name": "Object_7"
    },
    {
      "mesh": 6,
      "name": "Object_8"
    },
    {
      "mesh": 7,
      "name": "Object_9"
    },
    {
      "mesh": 8,
      "name": "Object_10"
    }
  ],
  "samplers": [
    {
      "magFilter": 9729,
      "minFilter": 9987,
      "wrapS": 10497,
      "wrapT": 10497
    }
  ],
  "scene": 0,
  "scenes": [
    {
      "name": "Sketchfab_Scene",
      "nodes": [
        0
      ]
    }
  ],
  "textures": [
    {
      "sampler": 0,
      "source": 0
    }
  ]
}
