{
  "accessors": [
    {
      "bufferView": 2,
      "componentType": 5126,
      "count": 65532,
      "max": [
        0.8150508403778076,
        1.4820761680603027,
        0.5862313508987427
      ],
      "min": [
        -1.2695651054382324,
        -2.3659210205078125,
        -0.6268448829650879
      ],
      "type": "VEC3"
    },
    {
      "bufferView": 2,
      "byteOffset": 786384,
      "componentType": 5126,
      "count": 65532,
      "max": [
        0.9999986290931702,
        0.9999390840530396,
        0.9999995231628418
      ],
      "min": [
        -0.99998539686203,
        -0.9999998807907104,
        -0.9999998211860657
      ],
      "type": "VEC3"
    },
    {
      "bufferView": 1,
      "componentType": 5126,
      "count": 65532,
      "max": [
        0.997367799282074,
        0.9946949481964111
      ],
      "min": [
        0.03972499072551727,
        0.0042482297867536545
      ],
      "type": "VEC2"
    },
    {
      "bufferView": 0,
      "componentType": 5125,
      "count": 361683,
      "type": "SCALAR"
    },
    {
      "bufferView": 2,
      "byteOffset": 1572768,
      "componentType": 5126,
      "count": 65532,
      "max": [
        0.981908917427063,
        1.4602354764938354,
        0.5726159811019897
      ],
      "min": [
        -1.1749013662338257,
        -0.9134066104888916,
        -0.5733400583267212
      ],
      "type": "VEC3"
    },
    {
      "bufferView": 2,
      "byteOffset": 2359152,
      "componentType": 5126,
      "count": 65532,
      "max": [
        0.9999991655349731,
        0.9999620318412781,
        0.9999987483024597
      ],
      "min": [
        -0.999962329864502,
        -0.9999706745147705,
        -0.9999998807907104
      ],
      "type": "VEC3"
    },
    {
      "bufferView": 1,
      "byteOffset": 524256,
      "componentType": 5126,
      "count": 65532,
      "max": [
        0.9904458522796631,
        0.5047589540481567
      ],
      "min": [
        0.02769506722688675,
        0.0019531268626451492
      ],
      "type": "VEC2"
    },
    {
      "bufferView": 0,
      "byteOffset": 1446732,
      "componentType": 5125,
      "count": 357522,
      "type": "SCALAR"
    },
    {
      "bufferView": 2,
      "byteOffset": 3145536,
      "componentType": 5126,
      "count": 46640,
      "max": [
        0.9857325553894043,
        1.4843194484710693,
        0.5929006934165955
      ],
      "min": [
        -1.2695651054382324,
        -1.9948303699493408,
        -0.594170868396759
      ],
      "type": "VEC3"
    },
    {
      "bufferView": 2,
      "byteOffset": 3705216,
      "componentType": 5126,
      "count": 46640,
      "max": [
        0.9999986886978149,
        0.9994722604751587,
        0.9999992251396179
      ],
      "min": [
        -0.9999229907989502,
        -1.0,
        -0.9999998211860657
      ],
      "type": "VEC3"
    },
    {
      "bufferView": 1,
      "byteOffset": 1048512,
      "componentType": 5126,
      "count": 46640,
      "max": [
        0.9897263646125793,
        0.9645783305168152
      ],
      "min": [
        0.001953127095475793,
        0.004825809970498085
      ],
      "type": "VEC2"
    },
    {
      "bufferView": 0,
      "byteOffset": 2876820,
      "componentType": 5125,
      "count": 219051,
      "type": "SCALAR"
    },
    {
      "bufferView": 2,
      "byteOffset": 4264896,
      "componentType": 5126,
      "count": 23556,
      "max": [
        1.021681547164917,
        -0.3833111524581909,
        0.15072649717330933
      ],
      "min": [
        -0.5292418003082275,
        -1.427625060081482,
        -0.49945488572120667
      ],
      "type": "VEC3"
    },
    {
      "bufferView": 2,
      "byteOffset": 4547568,
      "componentType": 5126,
      "count": 23556,
      "max": [
        0.9999969005584717,
        0.9993108510971069,
        1.0
      ],
      "min": [
        -0.999926745891571,
        -0.9999915361404419,
        -1.0
      ],
      "type": "VEC3"
    },
    {
      "bufferView": 1,
      "byteOffset": 1421632,
      "componentType": 5126,
      "count": 23556,
      "max": [
        0.998046875,
        0.9939091205596924
      ],
      "min": [
        0.08979707211256027,
        0.06366462260484695
      ],
      "type": "VEC2"
    },
    {
      "bufferView": 0,
      "byteOffset": 3753024,
      "componentType": 5125,
      "count": 136476,
      "type": "SCALAR"
    },
    {
      "bufferView": 2,
      "byteOffset": 4830240,
      "componentType": 5126,
      "count": 148,
      "max": [
        0.6978607773780823,
        -1.0985255241394043,
        -0.0763583555817604
      ],
      "min": [
        0.015605435706675053,
        -1.1336203813552856,
        -0.19216172397136688
      ],
      "type": "VEC3"
    },
    {
      "bufferView": 2,
      "byteOffset": 4832016,
      "componentType": 5126,
      "count": 148,
      "max": [
        0.7168986201286316,
        0.999968409538269,
        0.3963104784488678
      ],
      "min": [
        -0.41745463013648987,
        0.6693528294563293,
        -0.3839040696620941
      ],
      "type": "VEC3"
    },
    {
      "bufferView": 1,
      "byteOffset": 1610080,
      "componentType": 5126,
      "count": 148,
      "max": [
        0.8444226980209351,
        0.7523860335350037
      ],
      "min": [
        0.08447841554880142,
        0.010630758479237556
      ],
      "type": "VEC2"
    },
    {
      "bufferView": 0,
      "byteOffset": 4298928,
      "componentType": 5125,
      "count": 594,
      "type": "SCALAR"
    },
    {
      "bufferView": 2,
      "byteOffset": 4833792,
      "componentType": 5126,
      "count": 11597,
      "max": [
        1.7990282773971558,
        1.8152960538864136,
        -0.024642404168844223
      ],
      "min": [
        -2.349158763885498,
        -0.2860794961452484,
        -0.6950634717941284
      ],
      "type": "VEC3"
    },
    {
      "bufferView": 2,
      "byteOffset": 4972956,
      "componentType": 5126,
      "count": 11597,
      "max": [
        0.9990907311439514,
        0.9999919533729553,
        0.9999970197677612
      ],
      "min": [
        -0.9995453953742981,
        -0.9995891451835632,
        -0.9999980926513672
      ],
      "type": "VEC3"
    },
    {
      "bufferView": 1,
      "byteOffset": 1611264,
      "componentType": 5126,
      "count": 11597,
      "max": [
        0.5482373833656311,
        0.9449920058250427
      ],
      "min": [
        0.07206518948078156,
        0.4930955469608307
      ],
      "type": "VEC2"
    },
    {
      "bufferView": 0,
      "byteOffset": 4301304,
      "componentType": 5125,
      "count": 66288,
      "type": "SCALAR"
    }
  ],
  "asset": {
    "extras": {
      "author": "misskriss (https://sketchfab.com/misskriss)",
      "license": "CC-BY-4.0 (http://creativecommons.org/licenses/by/4.0/)",
      "source": "https://sketchfab.com/3d-models/spongebob-9d3c0e1574734bfe92740bcfa8c3881f",
      "title": "SpongeBob"
    },
    "generator": "Sketchfab-12.67.0",
    "version": "2.0"
  },
  "bufferViews": [
    {
      "buffer": 0,
      "byteLength": 4566456,
      "name": "floatBufferViews",
      "target": 34963
    },
    {
      "buffer": 0,
      "byteLength": 1704040,
      "byteOffset": 4566456,
      "byteStride": 8,
      "name": "floatBufferViews",
      "target": 34962
    },
    {
      "buffer": 0,
      "byteLength": 5112120,
      "byteOffset": 6270496,
      "byteStride": 12,
      "name": "floatBufferViews",
      "target": 34962
    }
  ],
  "buffers": [
    {
      "byteLength": 11382616,
      "uri": "scene.bin"
    }
  ],
  "images": [
    {
      "uri": "textures/Merged_Retopo_Cube_03530_baseColor.jpeg"
    }
  ],
  "materials": [
    {
      "doubleSided": true,
      "name": "Merged_Retopo_Cube_03530",
      "pbrMetallicRoughness": {
        "baseColorTexture": {
          "index": 0
        },
        "metallicFactor": 0.0,
        "roughnessFactor": 0.5361967908846044
      }
    },
    {
      "doubleSided": true,
      "name": "Merged_Retopo_Cube_03531",
      "pbrMetallicRoughness": {
        "baseColorTexture": {
          "index": 0
        },
        "metallicFactor": 0.0,
        "roughnessFactor": 0.536765287075376
      }
    },
    {
      "doubleSided": true,
      "name": "Merged_Retopo_Cube_03532",
      "pbrMetallicRoughness": {
        "metallicFactor": 0.0
      }
    },
    {
      "doubleSided": true,
      "name": "Merged_Retopo_Cube_03533",
      "pbrMetallicRoughness": {
        "baseColorTexture": {
          "index": 0
        },
        "metallicFactor": 0.0,
        "roughnessFactor": 0.5787580030279262
      }
    }
  ],
  "meshes": [
    {
      "name": "Merged_Retopo_Cube_0353_Merged_Retopo_Cube_03530_0",
      "primitives": [
        {
          "attributes": {
            "NORMAL": 1,
            "POSITION": 0,
            "TEXCOORD_0": 2
          },
          "indices": 3,
          "material": 0,
          "mode": 4
        }
      ]
    },
    {
      "name": "Merged_Retopo_Cube_0353_Merged_Retopo_Cube_03530_0",
      "primitives": [
        {
          "attributes": {
            "NORMAL": 5,
            "POSITION": 4,
            "TEXCOORD_0": 6
          },
          "indices": 7,
          "material": 0,
          "mode": 4
        }
      ]
    },
    {
      "name": "Merged_Retopo_Cube_0353_Merged_Retopo_Cube_03530_0",
      "primitives": [
        {
          "attributes": {
            "NORMAL": 9,
            "POSITION": 8,
            "TEXCOORD_0": 10
          },
          "indices": 11,
          "material": 0,
          "mode": 4
        }
      ]
    },
    {
      "name": "Merged_Retopo_Cube_0353_Merged_Retopo_Cube_03531_0",
      "primitives": [
        {
          "attributes": {
            "NORMAL": 13,
            "POSITION": 12,
            "TEXCOORD_0": 14
          },
          "indices": 15,
          "material": 1,
          "mode": 4
        }
      ]
    },
    {
      "name": "Merged_Retopo_Cube_0353_Merged_Retopo_Cube_03532_0",
      "primitives": [
        {
          "attributes": {
            "NORMAL": 17,
            "POSITION": 16,
            "TEXCOORD_0": 18
          },
          "indices": 19,
          "material": 2,
          "mode": 4
        }
      ]
    },
    {
      "name": "Merged_Retopo_Cube_0353_Merged_Retopo_Cube_03533_0",
      "primitives": [
        {
          "attributes": {
            "NORMAL": 21,
            "POSITION": 20,
            "TEXCOORD_0": 22
          },
          "indices": 23,
          "material": 3,
          "mode": 4
        }
      ]
    }
  ],
  "nodes": [
    {
      "children": [
        1
      ],
      "matrix": [
        -1.0,
        1.6081226229577284e-16,
        2.8327693431939995e-16,
        0.0,
        2.832769343193999e-16,
        -2.220446049250313e-16,
        1.0,
        0.0,
        1.6081226229577292e-16,
        1.0,
        2.2204460492503128e-16,
        0.0,
        -0.5501488447189331,
        7.819588469881007e-17,
        -0.10216295719146729,
        1.0
      ],
      "name": "Sketchfab_model"
    },
    {
      "children": [
        2
      ],
      "matrix": [
        1.0,
        0.0,
        0.0,
        0.0,
        0.0,
        0.0,
        1.0,
        0.0,
        0.0,
        -1.0,
        0.0,
        0.0,
        0.0,
        0.0,
        0.0,
        1.0
      ],
      "name": "55552d9abd5d48ddb274ffd060f75b59.fbx"
    },
    {
      "children": [
        3
      ],
      "name": "RootNode"
    },
    {
      "children": [
        4,
        5,
        6,
        7,
        8,
        9
      ],
      "name": "Merged_Retopo_Cube_0353"
    },
    {
      "mesh": 0,
      "name": "Merged_Retopo_Cube_0353_Merged_Retopo_Cube_03530_0"
    },
    {
      "mesh": 1,
      "name": "Merged_Retopo_Cube_0353_Merged_Retopo_Cube_03530_0"
    },
    {
      "mesh": 2,
      "name": "Merged_Retopo_Cube_0353_Merged_Retopo_Cube_03530_0"
    },
    {
      "mesh": 3,
      "name": "Merged_Retopo_Cube_0353_Merged_Retopo_Cube_03531_0"
    },
    {
      "mesh": 4,
      "name": "Merged_Retopo_Cube_0353_Merged_Retopo_Cube_03532_0"
    },
    {
      "mesh": 5,
      "name": "Merged_Retopo_Cube_0353_Merged_Retopo_Cube_03533_0"
    }
  ],
  "samplers": [
    {
      "magFilter": 9729,
      "minFilter": 9987,
      "wrapS": 10497,
      "wrapT": 10497
    }
  ],
  "scene": 0,
  "scenes": [
    {
      "name": "Sketchfab_Scene",
      "nodes": [
        0
      ]
    }
  ],
  "textures": [
    {
      "sampler": 0,
      "source": 0
    }
  ]
}
