{
  "accessors": [
    {
      "bufferView": 3,
      "componentType": 5126,
      "count": 1321,
      "max": [
        0.42538222670555115,
        0.5716614723205566,
        0.4277147054672241
      ],
      "min": [
        -0.4225090742111206,
        -0.7727930545806885,
        -0.4276430010795593
      ],
      "type": "VEC3"
    },
    {
      "bufferView": 3,
      "byteOffset": 15852,
      "componentType": 5126,
      "count": 1321,
      "max": [
        0.9996376037597656,
        0.999851644039154,
        0.9969073534011841
      ],
      "min": [
        -0.999823272228241,
        -0.9999285340309143,
        -0.9993955492973328
      ],
      "type": "VEC3"
    },
    {
      "bufferView": 2,
      "componentType": 5126,
      "count": 1321,
      "max": [
        0.99658203125,
        0.9850387573242188
      ],
      "min": [
        0.005359649658203125,
        0.005859375
      ],
      "type": "VEC2"
    },
    {
      "bufferView": 1,
      "componentType": 5125,
      "count": 6990,
      "type": "SCALAR"
    },
    {
      "bufferView": 5,
      "componentType": 5126,
      "count": 33,
      "max": [
        39.370079040527344,
        1.0,
        7.976525751018926e-08,
        0.0,
        1.1920927533992653e-07,
        39.370079040527344,
        3.1391647326017846e-07,
        0.0,
        3.7897057047391394e-14,
        5.833650077759212e-14,
        39.370079040527344,
        0.0,
        0.19013170897960663,
        0.7751208543777466,
        0.19163909554481506,
        1.0
      ],
      "min": [
        2.0529942901248432e-07,
        -1.1920928955078125e-07,
        -5.833650077759212e-14,
        0.0,
        -1.0,
        2.0529942901248432e-07,
        -1.1976450013329085e-20,
        0.0,
        -7.976527172104397e-08,
        -3.1391647326017846e-07,
        1.0,
        0.0,
        -0.6596677899360657,
        -0.530184805393219,
        -0.1896882802248001,
        1.0
      ],
      "type": "MAT4"
    },
    {
      "bufferView": 0,
      "componentType": 5123,
      "count": 1321,
      "type": "VEC4"
    },
    {
      "bufferView": 4,
      "componentType": 5126,
      "count": 1321,
      "max": [
        1.0,
        0.49803924560546875,
        0.2235293984413147,
        0.027450982481241226
      ],
      "min": [
        0.501960813999176,
        0.0,
        0.0,
        0.0
      ],
      "type": "VEC4"
    }
  ],
  "asset": {
    "extras": {
      "author": "romyblox (https://sketchfab.com/romyblox)",
      "license": "CC-BY-4.0 (http://creativecommons.org/licenses/by/4.0/)",
      "source": "https://sketchfab.com/3d-models/jellyfish-spongebob-bfbbr-08812895b2314344bf4535e284ee7ac2",
      "title": "Jellyfish - Spongebob bfbbr"
    },
    "generator": "Sketchfab-15.30.0",
    "version": "2.0"
  },
  "bufferViews": [
    {
      "buffer": 0,
      "byteLength": 10568,
      "byteStride": 8,
      "name": "shortBufferViews",
      "target": 34962
    },
    {
      "buffer": 0,
      "byteLength": 27960,
      "byteOffset": 10568,
      "name": "floatBufferViews",
      "target": 34963
    },
    {
      "buffer": 0,
      "byteLength": 10568,
      "byteOffset": 38528,
      "byteStride": 8,
      "name": "floatBufferViews",
      "target": 34962
    },
    {
      "buffer": 0,
      "byteLength": 31704,
      "byteOffset": 49096,
      "byteStride": 12,
      "name": "floatBufferViews",
      "target": 34962
    },
    {
      "buffer": 0,
      "byteLength": 21136,
      "byteOffset": 80800,
      "byteStride": 16,
      "name": "floatBufferViews",
      "target": 34962
    },
    {
      "buffer": 0,
      "byteLength": 2112,
      "byteOffset": 101936,
      "name": "floatBufferViews"
    }
  ],
  "buffers": [
    {
      "byteLength": 104048,
      "uri": "scene.bin"
    }
  ],
  "images": [
    {
      "uri": "textures/MI_EnemyJelly_Pink_baseColor.png"
    }
  ],
  "materials": [
    {
      "doubleSided": true,
      "name": "MI_EnemyJelly_Pink",
      "pbrMetallicRoughness": {
        "baseColorTexture": {
          "index": 0
        },
        "metallicFactor": 0.0,
        "roughnessFactor": 0.8211145618000169
      }
    }
  ],
  "meshes": [
    {
      "name": "enemyJellyfish_mesh.mo_MI_EnemyJelly_Pink_0",
      "primitives": [
        {
          "attributes": {
            "JOINTS_0": 5,
            "NORMAL": 1,
            "POSITION": 0,
            "TEXCOORD_0": 2,
            "TEXCOORD_1": 2,
            "WEIGHTS_0": 6
          },
          "indices": 3,
          "material": 0,
          "mode": 4
        }
      ]
    }
  ],
  "nodes": [
    {
      "children": [
        1
      ],
      "matrix": [
        1.0,
        0.0,
        0.0,
        0.0,
        0.0,
        2.220446049250313e-16,
        -1.0,
        0.0,
        0.0,
        1.0,
        2.220446049250313e-16,
        0.0,
        0.0,
        0.0,
        0.0,
        1.0
      ],
      "name": "Sketchfab_model"
    },
    {
      "children": [
        2
      ],
      "matrix": [
        0.02539999969303608,
        0.0,
        0.0,
        0.0,
        0.0,
        0.0,
        0.02539999969303608,
        0.0,
        0.0,
        -0.02539999969303608,
        0.0,
        0.0,
        0.0,
        0.0,
        0.0,
        1.0
      ],
      "name": "enemyJellyfish_mesh.fbx"
    },
    {
      "children": [
        3
      ],
      "name": "RootNode"
    },
    {
      "children": [
        4
      ],
      "matrix": [
        39.370079040527344,
        0.0,
        0.0,
        0.0,
        0.0,
        8.74191364642115e-15,
        -39.370079040527344,
        0.0,
        0.0,
        39.370079040527344,
        8.74191364642115e-15,
        0.0,
        0.0,
        0.0,
        0.0,
        1.0
      ],
      "name": "enemyJellyfish_mesh.ao"
    },
    {
      "children": [
        5,
        39,
        38
      ],
      "name": "Object_4"
    },
    {
      "children": [
        6
      ],
      "name": "_rootJoint"
    },
    {
      "children": [
        7
      ],
      "name": "jt_root_01",
      "rotation": [
        0.7071066498756409,
        0.0,
        0.0,
        0.70710688829422
      ]
    },
    {
      "children": [
        8,
        37
      ],
      "name": "jt_head_02",
      "rotation": [
        -1.4210854715202004e-14,
        -0.0,
        0.0,
        1.0
      ],
      "translation": [
        0.0,
        0.2569256126880646,
        -7.105427357601002e-15
      ]
    },
    {
      "children": [
        9,
        16,
        23,
        30
      ],
      "name": "jt_bottom_03",
      "rotation": [
        -1.4210854715202004e-14,
        -0.0,
        0.0,
        1.0
      ],
      "translation": [
        0.0,
        -0.21371573209762573,
        -9.769962616701378e-15
      ]
    },
    {
      "children": [
        10
      ],
      "name": "jt_tentacle_B_00_04",
      "rotation": [
        6.682077469122305e-08,
        6.682075337494098e-08,
        -0.7071068286895752,
        0.7071067094802856
      ],
      "translation": [
        -0.08359118551015854,
        -0.06736694276332855,
        0.18968820571899414
      ]
    },
    {
      "children": [
        11
      ],
      "name": "jt_tentacle_B_01_05",
      "rotation": [
        -1.6940658945086007e-21,
        2.6469779601696886e-23,
        -1.4634952246825642e-23,
        1.0
      ],
      "translation": [
        0.1490393429994583,
        7.450580596923828e-09,
        2.9802322387695313e-08
      ]
    },
    {
      "children": [
        12
      ],
      "name": "jt_tentacle_B_02_06",
      "rotation": [
        -1.6940658945086007e-21,
        2.802596928649634e-45,
        -1.4002736634845725e-24,
        1.0
      ],
      "translation": [
        0.15008890628814697,
        -7.450580596923828e-09,
        -4.470348358154297e-08
      ]
    },
    {
      "children": [
        13
      ],
      "name": "jt_tentacle_B_03_07",
      "rotation": [
        -1.6940658945086007e-21,
        -1.961817850054744e-44,
        1.1834404525426045e-23,
        1.0
      ],
      "translation": [
        0.1395931839942932,
        -7.450580596923828e-09,
        0.0
      ]
    },
    {
      "children": [
        14
      ],
      "name": "jt_tentacle_B_04_08",
      "rotation": [
        -1.6940658945086007e-21,
        2.5223372357846707e-44,
        -1.463558649099344e-23,
        1.0
      ],
      "translation": [
        0.11545312404632568,
        2.2351741790771484e-08,
        2.7755575615628914e-17
      ]
    },
    {
      "children": [
        15
      ],
      "name": "jt_tentacle_B_05_09",
      "rotation": [
        -1.6940658945086007e-21,
        1.3234889800848443e-23,
        -1.400908499298049e-24,
        1.0
      ],
      "translation": [
        0.08133625984191895,
        -1.4901161193847656e-08,
        -1.4901161193847656e-08
      ]
    },
    {
      "name": "jt_tentacle_B_06_010",
      "rotation": [
        -1.197885562257145e-21,
        1.1978853603087533e-21,
        0.7071068286895752,
        0.7071067094802856
      ],
      "translation": [
        0.11545300483703613,
        1.4901161193847656e-08,
        4.470348358154297e-08
      ]
    },
    {
      "children": [
        17
      ],
      "name": "jt_tentacle_C_00_011",
      "rotation": [
        6.682077469122305e-08,
        6.682075337494098e-08,
        -0.7071068286895752,
        0.7071067094802856
      ],
      "translation": [
        -0.19013148546218872,
        -0.06736694276332855,
        -0.08424744755029678
      ]
    },
    {
      "children": [
        18
      ],
      "name": "jt_tentacle_C_01_012",
      "rotation": [
        -1.6940658945086007e-21,
        2.6469779601696886e-23,
        -1.4634952246825642e-23,
        1.0
      ],
      "translation": [
        0.14903931319713593,
        0.0,
        1.4901161193847656e-08
      ]
    },
    {
      "children": [
        19
      ],
      "name": "jt_tentacle_C_02_013",
      "rotation": [
        -1.6940658945086007e-21,
        2.802596928649634e-45,
        -1.4002736634845725e-24,
        1.0
      ],
      "translation": [
        0.15008892118930817,
        1.4901161193847656e-08,
        1.4901161193847656e-08
      ]
    },
    {
      "children": [
        20
      ],
      "name": "jt_tentacle_C_03_014",
      "rotation": [
        -1.6940658945086007e-21,
        -1.961817850054744e-44,
        1.1834404525426045e-23,
        1.0
      ],
      "translation": [
        0.1395932137966156,
        -2.7755575615628914e-17,
        0.0
      ]
    },
    {
      "children": [
        21
      ],
      "name": "jt_tentacle_C_04_015",
      "rotation": [
        -1.6940658945086007e-21,
        2.5223372357846707e-44,
        -1.463558649099344e-23,
        1.0
      ],
      "translation": [
        0.11545297503471375,
        -4.470348358154297e-08,
        -7.450580596923828e-09
      ]
    },
    {
      "children": [
        22
      ],
      "name": "jt_tentacle_C_05_016",
      "rotation": [
        -1.6940658945086007e-21,
        1.3234889800848443e-23,
        -1.400908499298049e-24,
        1.0
      ],
      "translation": [
        0.08133625984191895,
        1.4901161193847656e-08,
        7.450580596923828e-09
      ]
    },
    {
      "name": "jt_tentacle_C_06_017",
      "rotation": [
        -2.8201288415630188e-08,
        2.820128131020283e-08,
        0.70710688829422,
        0.7071067094802856
      ],
      "translation": [
        0.11545300483703613,
        0.0,
        1.3877787807814457e-17
      ]
    },
    {
      "children": [
        24
      ],
      "name": "jt_tentacle_D_00_018",
      "rotation": [
        6.682076758579569e-08,
        6.682076048036834e-08,
        -0.7071068286895752,
        0.7071067094802856
      ],
      "translation": [
        0.08440524339675903,
        -0.06736692786216736,
        -0.19163909554481506
      ]
    },
    {
      "children": [
        25
      ],
      "name": "jt_tentacle_D_01_019",
      "rotation": [
        1.6940658945086007e-21,
        1.3234889800848443e-23,
        4.785213290561195e-24,
        1.0
      ],
      "translation": [
        0.14903931319713593,
        7.450580596923828e-09,
        2.9802322387695313e-08
      ]
    },
    {
      "children": [
        26
      ],
      "name": "jt_tentacle_D_02_020",
      "rotation": [
        1.6940658945086007e-21,
        -1.3234889800848443e-23,
        4.785425099714247e-24,
        1.0
      ],
      "translation": [
        0.15008893609046936,
        0.0,
        -4.470348358154297e-08
      ]
    },
    {
      "children": [
        27
      ],
      "name": "jt_tentacle_D_03_021",
      "rotation": [
        1.6940658945086007e-21,
        -1.3234889800848443e-23,
        4.7856365144368464e-24,
        1.0
      ],
      "translation": [
        0.1395931839942932,
        -7.450580596923828e-09,
        0.0
      ]
    },
    {
      "children": [
        28
      ],
      "name": "jt_tentacle_D_04_022",
      "rotation": [
        1.6940658945086007e-21,
        -2.6469779601696886e-23,
        4.785848323589898e-24,
        1.0
      ],
      "translation": [
        0.11545297503471375,
        1.4901161193847656e-08,
        0.0
      ]
    },
    {
      "children": [
        29
      ],
      "name": "jt_tentacle_D_05_023",
      "rotation": [
        5.082197683525802e-21,
        9.10844001811131e-44,
        1.8020949933591393e-23,
        1.0
      ],
      "translation": [
        0.08133625984191895,
        -2.2351741790771484e-08,
        -1.4901161193847656e-08
      ]
    },
    {
      "name": "jt_tentacle_D_06_024",
      "rotation": [
        1.1885270718356803e-21,
        -1.2072438507302181e-21,
        0.7071068286895752,
        0.7071067094802856
      ],
      "translation": [
        0.11545306444168091,
        7.450580596923828e-09,
        4.470348358154297e-08
      ]
    },
    {
      "children": [
        31
      ],
      "name": "jt_tentacle_A_00_025",
      "rotation": [
        6.682076758579569e-08,
        6.682076048036834e-08,
        -0.7071068286895752,
        0.7071067094802856
      ],
      "translation": [
        0.1911325305700302,
        -0.06736695766448975,
        0.08262933790683746
      ]
    },
    {
      "children": [
        32
      ],
      "name": "jt_tentacle_A_01_026",
      "rotation": [
        1.6940658945086007e-21,
        1.3234889800848443e-23,
        4.785213290561195e-24,
        1.0
      ],
      "translation": [
        0.14903932809829712,
        0.0,
        7.450580596923828e-09
      ]
    },
    {
      "children": [
        33
      ],
      "name": "jt_tentacle_A_02_027",
      "rotation": [
        1.6940658945086007e-21,
        -1.3234889800848443e-23,
        4.785425099714247e-24,
        1.0
      ],
      "translation": [
        0.15008892118930817,
        1.4901161193847656e-08,
        2.9802322387695313e-08
      ]
    },
    {
      "children": [
        34
      ],
      "name": "jt_tentacle_A_03_028",
      "rotation": [
        1.6940658945086007e-21,
        -1.3234889800848443e-23,
        4.7856365144368464e-24,
        1.0
      ],
      "translation": [
        0.13959312438964844,
        0.0,
        -1.3877787807814457e-17
      ]
    },
    {
      "children": [
        35
      ],
      "name": "jt_tentacle_A_04_00",
      "rotation": [
        1.6940658945086007e-21,
        -2.6469779601696886e-23,
        4.785848323589898e-24,
        1.0
      ],
      "translation": [
        0.11545312404632568,
        -2.9802322387695313e-08,
        -1.4901161193847656e-08
      ]
    },
    {
      "children": [
        36
      ],
      "name": "jt_tentacle_A_05_029",
      "rotation": [
        5.082197683525802e-21,
        9.10844001811131e-44,
        1.8020949933591393e-23,
        1.0
      ],
      "translation": [
        0.08133625984191895,
        1.4901161193847656e-08,
        2.2351741790771484e-08
      ]
    },
    {
      "name": "jt_tentacle_A_06_030",
      "rotation": [
        -2.8201291968343867e-08,
        2.820128308655967e-08,
        0.70710688829422,
        0.7071067094802856
      ],
      "translation": [
        0.11545300483703613,
        -1.4901161193847656e-08,
        -7.450580596923828e-09
      ]
    },
    {
      "name": "jt_top_031",
      "rotation": [
        4.263256414560601e-14,
        0.0,
        0.0,
        1.0
      ],
      "translation": [
        0.0,
        0.2732591927051544,
        -2.1316282072803006e-14
      ]
    },
    {
      "matrix": [
        39.370079040527344,
        2.7506462788095715e-32,
        -4.0389678347315804e-28,
        0.0,
        -4.0389678347315804e-28,
        2.4107220639580053e-15,
        -39.370079040527344,
        0.0,
        -2.750646278807098e-32,
        39.370079040527344,
        2.4107220639580053e-15,
        0.0,
        0.0,
        -3.552713678800501e-15,
        0.0,
        1.0
      ],
      "name": "Object_38"
    },
    {
      "mesh": 0,
      "name": "Object_39",
      "skin": 0
    }
  ],
  "samplers": [
    {
      "magFilter": 9729,
      "minFilter": 9987,
      "wrapS": 10497,
      "wrapT": 10497
    }
  ],
  "scene": 0,
  "scenes": [
    {
      "name": "Sketchfab_Scene",
      "nodes": [
        0
      ]
    }
  ],
  "skins": [
    {
      "inverseBindMatrices": 4,
      "joints": [
        5,
        6,
        7,
        8,
        9,
        10,
        11,
        12,
        13,
        14,
        15,
        16,
        17,
        18,
        19,
        20,
        21,
        22,
        23,
        24,
        25,
        26,
        27,
        28,
        29,
        30,
        31,
        32,
        33,
        34,
        35,
        36,
        37
      ],
      "skeleton": 5
    }
  ],
  "textures": [
    {
      "sampler": 0,
      "source": 0
    }
  ]
}
